<svg t="1621404280805" class="icon" viewBox="0 0 1024 1024" version="1.1" xmlns="http://www.w3.org/2000/svg" p-id="8171" width="128" height="128"><path d="M576.366 235.081c39.35 0 71.095 32.183 71.095 71.753V531.75a28.745 28.745 0 0 1-28.672 28.745H605.11a28.745 28.745 0 0 1-28.672-28.745V342.747a35.694 35.694 0 0 0-35.548-35.84h-397.75a35.694 35.694 0 0 0-35.475 35.84v537.015c0 19.822 15.872 35.84 35.475 35.84h397.75c19.603 0 35.548-16.018 35.548-35.84 0-15.945 12.873-28.818 28.672-28.818h13.678c15.872 0 28.672 13.02 28.672 28.818v35.84a71.387 71.387 0 0 1-71.022 71.827H107.52a71.46 71.46 0 0 1-71.022-71.827V306.834c0-39.716 31.817-71.753 71.095-71.753z m374.272-198.51c19.602 0 35.474 16.092 35.474 35.84v641.024a71.387 71.387 0 0 1-71.095 71.827H446.245a71.46 71.46 0 0 1-71.095-71.827V495.91c0-17.847 14.482-32.33 32.256-32.33h6.583c17.773 0 32.182 14.483 32.182 32.33v181.833c0 19.895 15.946 35.913 35.548 35.913h397.75c19.603 0 35.475-16.092 35.475-35.84v-533.65a35.694 35.694 0 0 0-35.474-35.84H481.792c-19.675 0-35.547 16.018-35.474 35.84a32.33 32.33 0 0 1-32.256 32.329h-6.583a32.33 32.33 0 0 1-32.183-32.33v-35.84c0-39.716 31.744-71.826 71.022-71.826z" p-id="8172"></path></svg>